<svg width="1728" height="474" viewBox="0 0 1728 474" fill="#ffffff" xmlns="http://www.w3.org/2000/svg">
<path opacity="0.25" d="M1814.79 0C1814.39 0 1814.06 0.330019 1814.06 0.730757V63.234L1760.24 94.2794L1706.41 63.234V0.730757C1706.41 0.330019 1706.08 0 1705.68 0C1705.28 0 1704.95 0.330019 1704.95 0.730757V126.173L1651.86 156.794V94.7037L1651.48 94.4915L1597.29 63.234V0.730757C1597.29 0.330019 1596.96 0 1596.56 0C1596.16 0 1595.82 0.330019 1595.82 0.730757V62.3972L1541.99 31.3518L1541.63 31.564L1432.88 94.2794L1379.78 63.6583L1433.24 32.8251C1433.41 32.7308 1433.54 32.5658 1433.58 32.3772C1433.63 32.1887 1433.61 31.9883 1433.51 31.8233C1433.41 31.6465 1433.25 31.5286 1433.05 31.4697C1432.99 31.4579 1432.93 31.4461 1432.88 31.4461C1432.75 31.4461 1432.62 31.4815 1432.5 31.5522L1379.05 62.3854V0.730757C1379.05 0.330019 1378.72 0 1378.32 0C1377.92 0 1377.59 0.330019 1377.59 0.730757V62.3972L1323.76 31.3518L1323.39 31.564L1213.91 94.7037V157.643L1160.09 188.688L1106.99 158.067L1160.82 127.022V126.833L1159.98 62.7626L1159.83 62.6683L1105.52 31.3518L1105.15 31.564L1051.69 62.3972V0.730757C1051.69 0.330019 1051.36 0 1050.96 0C1050.56 0 1050.23 0.330019 1050.23 0.730757V62.3972L996.766 31.564C996.66 31.4933 996.53 31.4579 996.401 31.4579C996.342 31.4579 996.271 31.4579 996.212 31.4815C996.023 31.5286 995.858 31.6583 995.763 31.8233C995.563 32.1769 995.681 32.6248 996.035 32.8251L1049.5 63.6583L995.669 94.7037V156.794L942.574 126.173V63.2458L942.208 63.0337L887.65 31.5758C887.544 31.505 887.415 31.4697 887.285 31.4697C887.226 31.4697 887.155 31.4697 887.096 31.4933C886.907 31.5404 886.742 31.67 886.648 31.8351C886.553 32.0001 886.53 32.2004 886.577 32.389C886.624 32.5776 886.754 32.7426 886.919 32.8369L940.38 63.6701L887.285 94.2912L832.727 62.8215L832.349 63.0337L777.426 94.7155V102.365V156.806L724.343 126.185V63.5876L724.295 63.5051V63.4697L724.248 63.3047L724.201 63.2222L724.142 63.1869L723.977 63.069L723.8 62.9629L723.717 62.9394H723.693H723.611H723.516L723.434 62.9865H723.41H723.387L723.245 63.0337L669.053 94.2912L614.79 62.9865H614.684L614.495 62.9276H614.377L614.318 62.9511L614.235 62.9747L614.118 63.069L613.976 63.1751L613.929 63.1987L613.858 63.3047L613.811 63.4933V63.5169L613.764 63.6701V126.185L560.669 156.806V94.7155L505.19 62.7272L504.636 64.3891V126.185L451.541 156.806V95.293L451.045 94.4208L450.963 94.3737L397.715 63.6701L451.175 32.8369C451.341 32.7426 451.458 32.5894 451.517 32.389C451.565 32.2004 451.541 32.0001 451.447 31.8351C451.34 31.6583 451.187 31.5404 450.998 31.4933C450.939 31.4697 450.869 31.4697 450.81 31.4697C450.68 31.4697 450.55 31.505 450.444 31.5758L395.52 63.2458V126.185L342.425 156.806V94.7155L342.059 94.5033L288.599 63.6701L342.059 32.8369C342.225 32.7426 342.343 32.5894 342.402 32.389C342.449 32.2004 342.425 32.0001 342.331 31.8351C342.225 31.6583 342.071 31.5404 341.871 31.4933C341.812 31.4697 341.741 31.4697 341.682 31.4697C341.552 31.4697 341.434 31.505 341.316 31.5758L287.454 62.6447H286.794L232.566 31.3636L178.74 62.409V0.730757C178.74 0.318233 178.409 0 178.008 0C177.607 0 177.277 0.330019 177.277 0.730757V127.022L177.642 127.234L231.091 158.067L178.008 188.688L124.182 157.643V94.7037L123.816 94.4915L69.1282 62.9511L67.9484 63.3519L14.3226 94.2794L-39.1735 63.4226L-39.5038 62.8569V0.730757C-39.5038 0.318233 -39.8342 0 -40.2354 0C-40.6365 0 -40.9669 0.330019 -40.9669 0.730757V62.3972L-94.4276 31.564C-94.5338 31.4933 -94.6635 31.4697 -94.7933 31.4697C-94.8523 31.4697 -94.9231 31.4697 -94.9821 31.4933C-95.1708 31.5404 -95.336 31.67 -95.4304 31.8351C-95.5248 32.0119 -95.5484 32.2004 -95.5012 32.389C-95.454 32.5776 -95.3242 32.7308 -95.1591 32.8369L-41.6985 63.6701L-94.7933 94.2912L-203.909 31.3636L-257.724 62.3972V0.730757C-257.724 0.318233 -258.054 0 -258.467 0C-258.88 0 -259.199 0.330019 -259.199 0.730757V63.234L-313.757 94.7037V156.794L-366.84 126.173V0.730757C-366.84 0.318233 -367.17 0 -367.571 0C-367.972 0 -368.303 0.330019 -368.303 0.730757V63.234L-422.129 94.2794L-475.955 63.234V0.730757C-475.955 0.318233 -476.286 0 -476.687 0C-477.088 0 -477.418 0.330019 -477.418 0.730757V62.3854L-530.903 31.564C-531.009 31.505 -531.139 31.4697 -531.268 31.4697C-531.327 31.4697 -531.398 31.4697 -531.457 31.4933C-531.646 31.5404 -531.811 31.67 -531.906 31.8351C-532 32.0001 -532.024 32.2004 -531.976 32.389C-531.929 32.5776 -531.799 32.7426 -531.634 32.8369L-478.185 63.6701L-531.493 94.4208L-532 95.293V221.431L-478.174 252.476L-532 283.51V409.648L-531.493 410.508L-531.422 410.556L-478.174 441.271L-531.634 472.104C-531.799 472.198 -531.929 472.363 -531.976 472.552C-532.024 472.741 -532 472.941 -531.906 473.106C-531.811 473.271 -531.646 473.401 -531.457 473.448C-531.398 473.46 -531.339 473.471 -531.268 473.471C-531.139 473.471 -531.009 473.436 -530.891 473.365L-477.442 442.544V504.21C-477.442 504.611 -477.112 504.941 -476.711 504.941C-476.309 504.941 -475.979 504.611 -475.979 504.21V441.707L-422.153 410.662L-368.326 441.707V504.21C-368.326 504.611 -367.996 504.941 -367.595 504.941C-367.194 504.941 -366.863 504.611 -366.863 504.21V378.768L-313.78 348.147V410.237L-313.414 410.449L-259.222 441.707V504.21C-259.222 504.611 -258.892 504.941 -258.491 504.941C-258.09 504.941 -257.747 504.611 -257.747 504.21V442.544L-203.921 473.589L-203.555 473.377L-94.8051 410.662L-41.7102 441.283L-95.1708 472.116C-95.3478 472.21 -95.4658 472.375 -95.513 472.564C-95.5602 472.752 -95.5366 472.953 -95.4422 473.118C-95.336 473.295 -95.1826 473.412 -94.9821 473.471C-94.9231 473.483 -94.8641 473.495 -94.8051 473.495C-94.6753 473.495 -94.5455 473.46 -94.4276 473.389L-40.9787 442.567V504.234C-40.9787 504.635 -40.6483 504.965 -40.2472 504.965C-39.846 504.965 -39.5157 504.635 -39.5157 504.234V442.567L14.3107 473.613L14.6765 473.401L124.158 410.261V347.333L177.984 316.3L231.068 346.921L177.241 377.966V378.155L178.079 442.226L178.232 442.32L232.542 473.648L232.908 473.436L286.369 442.603V504.269C286.369 504.67 286.699 505 287.1 505C287.502 505 287.832 504.67 287.832 504.269V442.603L341.293 473.436C341.399 473.495 341.529 473.542 341.658 473.542C341.717 473.542 341.788 473.542 341.847 473.519C342.036 473.471 342.201 473.342 342.295 473.177C342.496 472.823 342.378 472.375 342.024 472.175L288.563 441.342L342.39 410.296V348.206L395.485 378.827V441.754L395.85 441.966L450.408 473.436C450.526 473.507 450.644 473.542 450.786 473.542C450.845 473.542 450.904 473.542 450.975 473.519C451.163 473.471 451.329 473.342 451.423 473.177C451.517 473 451.541 472.811 451.494 472.623C451.435 472.434 451.317 472.281 451.152 472.175L397.691 441.342L450.786 410.721L505.344 442.178L505.71 441.966L560.633 410.285V402.635V348.194L613.728 378.815V441.412L613.775 441.495V441.53L613.823 441.695L613.87 441.778L613.929 441.813L614.082 441.931L614.259 442.037L614.342 442.061H614.365H614.448H614.531L614.613 442.013H614.637H614.66L614.802 441.966L668.994 410.721L723.257 442.013H723.363L723.552 442.072H723.67L723.729 442.049H723.812L723.929 441.931L724.071 441.825L724.118 441.801L724.189 441.695L724.236 441.518L724.26 441.483L724.283 441.33V378.815L777.378 348.194V410.285L832.845 442.273L833.399 440.611V378.815L886.494 348.194V409.707L886.99 410.579L887.06 410.626L940.309 441.342L886.848 472.175C886.683 472.269 886.553 472.422 886.506 472.623C886.459 472.811 886.482 473.012 886.577 473.177C886.683 473.353 886.836 473.471 887.025 473.519C887.084 473.53 887.155 473.542 887.214 473.542C887.344 473.542 887.474 473.507 887.58 473.436L942.503 441.766V378.827L995.598 348.206V410.296L995.964 410.508L1049.42 441.342L995.964 472.175C995.799 472.269 995.681 472.422 995.622 472.623C995.563 472.811 995.598 473.012 995.693 473.177C995.799 473.353 995.952 473.471 996.153 473.519C996.212 473.542 996.283 473.542 996.342 473.542C996.471 473.542 996.589 473.507 996.707 473.436L1050.57 442.367H1051.23L1105.46 473.648L1159.28 442.603V504.269C1159.28 504.682 1159.61 505 1160.02 505C1160.42 505 1160.75 504.67 1160.75 504.269V377.978L1160.38 377.766L1106.92 346.933L1160.02 316.312L1213.84 347.345V410.285L1214.21 410.497L1268.9 442.037L1270.06 441.636L1323.69 410.709L1377.19 441.566L1377.52 442.131V504.257C1377.52 504.67 1377.85 504.988 1378.25 504.988C1378.65 504.988 1378.98 504.658 1378.98 504.257V442.591L1432.44 473.424C1432.55 473.495 1432.68 473.519 1432.8 473.519C1432.86 473.519 1432.93 473.519 1432.99 473.495C1433.18 473.448 1433.35 473.318 1433.44 473.153C1433.54 472.976 1433.56 472.776 1433.51 472.599C1433.47 472.411 1433.34 472.257 1433.17 472.151L1379.71 441.318L1432.8 410.697L1541.92 473.625L1595.75 442.579V504.246C1595.75 504.658 1596.08 504.976 1596.48 504.976C1596.88 504.976 1597.22 504.646 1597.22 504.246V441.742L1651.78 410.273V348.182L1704.86 378.803V504.246C1704.86 504.658 1705.19 504.976 1705.59 504.976C1706 504.976 1706.33 504.646 1706.33 504.246V441.742L1760.15 410.697L1813.98 441.742V504.246C1813.98 504.658 1814.31 504.976 1814.71 504.976C1815.11 504.976 1815.44 504.646 1815.44 504.246V442.591L1868.89 473.412C1869 473.483 1869.13 473.519 1869.26 473.519C1869.32 473.519 1869.39 473.519 1869.45 473.495C1869.63 473.448 1869.8 473.318 1869.89 473.141C1869.99 472.976 1870.01 472.776 1869.96 472.587C1869.92 472.399 1869.79 472.234 1869.62 472.139L1816.17 441.306L1869.49 410.556L1870 409.683V283.545L1816.17 252.5L1870 221.455V95.3166L1869.49 94.4562L1869.42 94.409L1816.17 63.7055L1869.62 32.8723C1869.8 32.778 1869.92 32.613 1869.96 32.4244C1870.01 32.2358 1869.99 32.0354 1869.89 31.8704C1869.8 31.7054 1869.63 31.5758 1869.45 31.5286C1869.39 31.5168 1869.33 31.505 1869.26 31.505C1869.13 31.505 1869 31.5404 1868.88 31.6111L1815.43 62.4325V0.730757C1815.43 0.330019 1815.1 0 1814.7 0M1541.9 94.2912L1488.8 63.6701L1541.9 33.0491L1594.98 63.6701L1541.9 94.2912ZM1323.67 94.2912L1270.57 63.6701L1323.65 33.0491L1376.75 63.6701L1323.65 94.2912H1323.67ZM1105.43 94.2912L1052.34 63.6701L1105.43 33.0491L1132.35 48.5717L1158.53 63.6701L1105.43 94.2912ZM232.483 94.2912L179.389 63.6701L232.483 33.0491L285.566 63.6701L232.472 94.2912H232.483ZM-203.992 94.2912L-257.087 63.6701L-203.992 33.0491L-150.897 63.6701L-203.992 94.2912ZM1322.93 156.806L1269.84 126.185V64.943L1322.93 95.5641V156.806ZM14.9715 156.806V95.5641L68.0663 64.943V126.185L14.9715 156.806ZM1759.41 156.806L1706.31 126.185V64.943L1759.41 95.5641V156.806ZM1650.29 156.806L1597.2 126.185V64.943L1650.29 95.5641V156.806ZM1432.05 156.806L1378.95 126.185V64.943L1432.05 95.5641V156.806ZM1324.41 156.806V95.5641L1377.49 64.943V126.185L1324.41 156.806ZM1106.17 156.806V95.5641L1159.25 64.943V126.185L1106.17 156.806ZM1104.7 156.806L1051.61 126.185V64.943L1104.7 95.5641V156.806ZM887.934 156.806V95.5641L941.017 64.943V126.185L887.934 156.806ZM886.471 156.806L833.376 126.185V64.943L886.471 95.5641V156.806ZM668.227 156.806L643.072 142.297L615.132 126.185V64.943L668.227 95.5641V156.806ZM449.984 156.806L396.901 126.185V64.943L449.984 95.5641V156.806ZM233.215 156.806V95.5641L286.31 64.943V126.185L233.215 156.806ZM231.74 156.806L178.657 126.185V64.943L231.74 95.5641V156.806ZM13.5084 156.806L-39.5746 126.185V64.943L13.5084 95.5641V156.806ZM-94.1326 156.806V95.5641L-41.0377 64.943V126.185L-94.1326 156.806ZM-312.376 156.806V95.5641L-259.281 64.943V126.185L-312.376 156.806ZM-421.492 156.806V95.5641L-368.397 64.943V126.185L-421.492 156.806ZM1868.54 156.806L1815.45 126.185V64.943L1868.54 95.5641V156.806ZM1542.65 156.806V95.5641L1595.74 64.943V126.185L1542.65 156.806ZM1487.35 127.352C1487.75 127.352 1488.08 127.022 1488.08 126.621V64.9548L1541.17 95.5759V157.667L1487.34 188.712L1433.51 157.667V95.5759L1486.6 64.9548V126.621C1486.6 127.022 1486.93 127.352 1487.33 127.352M1215.27 156.806V95.5641L1268.35 64.943V126.185L1215.27 156.806ZM997.038 156.806V95.5641L1050.12 64.943V126.185L997.038 156.806ZM778.806 156.806V95.5641L831.889 64.943V126.185L778.806 156.806ZM-149.434 188.7L-203.26 157.655V95.5641L-150.165 64.943V126.609C-150.165 127.01 -149.835 127.34 -149.434 127.34C-149.033 127.34 -148.702 127.01 -148.702 126.609V64.943L-95.6192 95.5641V157.655L-149.446 188.7H-149.434ZM-530.525 156.794V95.5523L-477.442 64.9313V126.173L-530.525 156.794ZM669.785 156.794V95.5523L709.912 72.4038L722.868 64.9313V126.173L669.785 156.794ZM559.194 156.794L544.009 148.037L506.099 126.173V64.9313L559.182 95.5523V156.794H559.194ZM340.962 156.794L287.879 126.173V64.9313L340.962 95.5523V156.794ZM122.719 156.794L69.6356 126.173V64.9313L122.719 95.5523V156.794ZM-204.641 156.794L-257.724 126.173V64.9313L-204.641 95.5523V156.794ZM-422.872 156.794L-475.955 126.173V64.9313L-422.872 95.5523V156.794ZM1760.98 156.794V95.5523L1814.06 64.943V126.185L1760.98 156.806V156.794ZM1814.8 188.688L1761.72 158.067L1814.8 127.446L1867.9 158.067L1814.8 188.688ZM1705.69 188.688L1652.59 158.067L1705.69 127.446L1758.78 158.067L1705.7 188.688H1705.69ZM1596.57 188.688L1543.48 158.067L1596.57 127.446L1649.66 158.067L1596.57 188.688ZM1377.6 251.192L1324.52 220.571V158.48L1378.34 127.435L1431.44 158.056L1377.61 189.101V251.192H1377.6ZM1269.21 188.688L1216.12 158.067L1269.21 127.446L1322.31 158.067L1269.21 188.688ZM1050.98 188.688L997.887 158.067L1050.98 127.446L1104.08 158.067L1050.98 188.688ZM942.598 251.204V189.125L942.244 188.912L888.771 158.079L941.854 127.458L995.681 158.503V220.582L942.586 251.204H942.598ZM832.739 188.688L779.644 158.067L832.739 127.446L885.833 158.067L832.739 188.688ZM723.623 188.688L670.54 158.067L723.623 127.446L763.22 150.288L776.706 158.067L768.329 162.9L723.623 188.677V188.688ZM614.507 188.688L570.025 163.041L561.412 158.079L613.268 128.177L614.507 127.458L661.219 154.39L667.602 158.067L614.519 188.688H614.507ZM505.391 188.688L463.8 164.703L452.308 158.079L475.292 144.819L505.391 127.458L558.486 158.079L505.391 188.7V188.688ZM395.532 251.204L342.437 220.582V158.503L396.263 127.458L449.346 158.079L395.803 188.971L395.52 189.136V251.215L395.532 251.204ZM287.148 188.688L234.053 158.067L287.148 127.446L340.242 158.067L287.148 188.688ZM68.9158 188.688L15.821 158.067L68.9158 127.446L122.011 158.067L68.9158 188.688ZM-39.4684 251.192V189.113L-93.2948 158.067L-40.2 127.446L13.6264 158.492V220.582L-39.4566 251.204L-39.4684 251.192ZM-258.443 188.688L-311.538 158.067L-258.443 127.446L-205.36 158.067L-258.443 188.688ZM-367.559 188.688L-420.654 158.067L-367.559 127.446L-331.49 148.249L-314.476 158.067L-367.571 188.688H-367.559ZM-476.675 188.688L-529.794 158.067L-476.699 127.446L-423.604 158.067L-476.699 188.688H-476.675ZM1269.96 251.192V189.961L1323.05 159.34V220.582L1269.96 251.204V251.192ZM1050.25 251.192L997.167 220.582V159.34L1050.25 189.961V251.192ZM724.366 251.192V189.961L771.809 162.593L777.461 159.329V220.571L730.207 247.821L724.366 251.18V251.192ZM287.891 251.192V189.961L340.974 159.34V220.582L287.891 251.192ZM68.1843 251.192L15.0895 220.571V159.329L68.1843 189.95V251.18V251.192ZM1595.84 251.192L1542.76 220.571V159.329L1595.84 189.95V251.18V251.192ZM1486.73 251.192L1433.64 220.571V159.329L1486.73 189.95V251.18V251.192ZM1379.07 251.192V189.95L1432.17 159.329V220.571L1379.07 251.192ZM1268.48 251.192L1215.4 220.571V159.329L1268.48 189.95V251.18V251.192ZM1160.84 251.192V189.961L1213.94 159.34V220.582L1160.84 251.204V251.192ZM722.903 251.192L694.798 234.985L669.808 220.571V159.329L722.903 189.95V251.18V251.192ZM613.787 251.192L607.947 247.833L560.692 220.582V159.352L613.787 189.973V251.204V251.192ZM506.134 251.192V189.95L559.217 159.329V220.571L506.134 251.192ZM504.671 251.192L451.576 220.571V159.329L504.671 189.95V251.18V251.192ZM286.44 251.192L233.345 220.571V159.329L286.44 189.95V251.18V251.192ZM177.324 251.192L124.229 220.571V159.329L177.324 189.95V251.192ZM69.6828 251.192V189.961L122.766 159.34V220.582L69.6828 251.204V251.192ZM-40.9079 251.192L-94.0028 220.571V159.329L-40.9079 189.95V251.192ZM-148.561 251.192V189.961L-95.4776 159.34V220.582L-148.561 251.192ZM-257.677 251.192V189.961L-204.593 159.34V220.582L-233.1 237.024L-257.677 251.204V251.192ZM-366.792 251.192V189.95L-313.709 159.329V220.571L-366.792 251.192ZM-368.267 251.192L-421.35 220.571V159.329L-368.267 189.95V251.18V251.192ZM-475.908 251.192V189.95L-422.825 159.34V220.582L-475.908 251.204V251.192ZM1815.58 251.192V189.961L1868.67 159.34V220.571L1815.58 251.192ZM1814.11 251.192L1761.03 220.571V159.329L1814.11 189.938V251.18V251.192ZM1706.47 251.192V189.961L1759.55 159.34V220.571L1706.47 251.192ZM1704.99 251.192L1651.91 220.571V159.329L1704.99 189.95V251.18V251.192ZM1597.35 251.192V189.961L1650.43 159.34V220.571L1597.35 251.192ZM1488.24 251.192V189.961L1541.32 159.34V220.571L1488.24 251.192ZM1159.41 251.192L1106.33 220.571V159.329L1159.41 189.95V251.18V251.192ZM1051.76 251.192V189.961L1104.84 159.34V220.582L1051.76 251.204V251.192ZM941.17 251.192L888.087 220.571V159.329L941.17 189.95V251.18V251.192ZM833.517 251.192V189.961L886.612 159.34V220.571L833.517 251.192ZM832.054 251.192L778.971 220.571V159.329L832.054 189.95V251.18V251.192ZM615.286 251.192V189.961L668.38 159.34V220.571L615.286 251.192ZM397.054 251.192V189.961L450.137 159.34V220.582L397.054 251.204V251.192ZM178.81 251.192V189.961L231.893 159.34V220.582L178.81 251.204V251.192ZM-150.012 251.192L-203.095 220.571V159.329L-150.012 189.95V251.18V251.192ZM-259.128 251.192L-312.211 220.582V159.34L-259.128 189.961V251.192ZM-477.359 251.192L-530.525 220.582V159.34L-477.442 189.961V251.192H-477.359ZM1760.31 283.086L1707.22 252.465L1760.31 221.844L1813.39 252.465L1760.31 283.086ZM1651.19 283.086L1598.11 252.465L1651.19 221.844L1704.27 252.465L1651.19 283.086ZM1542.07 283.086L1488.99 252.465L1542.07 221.844L1595.16 252.465L1542.07 283.086ZM1432.96 283.086L1379.86 252.465L1432.96 221.844L1486.05 252.465L1432.96 283.086ZM1323.84 283.086L1270.76 252.465L1323.84 221.844L1376.93 252.465L1323.84 283.086ZM1214.73 283.086L1161.63 252.465L1214.73 221.844L1267.81 252.465L1214.73 283.086ZM1105.61 283.086L1052.53 252.465L1105.61 221.844L1158.69 252.465L1105.61 283.086ZM887.367 283.086L834.284 252.465L887.367 221.844L940.45 252.465L887.367 283.086ZM778.251 283.086L725.168 252.465L778.251 221.844L831.346 252.465L778.251 283.086ZM669.136 283.086L616.053 252.465L669.147 221.844L722.23 252.465L669.136 283.086ZM560.02 283.086L506.925 252.465L560.02 221.844L613.103 252.465L560.02 283.086ZM450.904 283.086L397.821 252.465L450.904 221.844L503.999 252.465L450.904 283.086ZM-94.6871 283.086L-147.782 252.465L-94.6871 221.844L-41.5922 252.465L-94.6871 283.086ZM-312.919 283.086L-366.002 252.465L-312.919 221.844L-259.836 252.465L-312.919 283.086ZM996.507 283.086L943.424 252.465L996.507 221.844L1049.6 252.465L996.507 283.086ZM341.788 283.086L288.693 252.465L341.788 221.844L394.871 252.465L341.788 283.086ZM232.672 283.086L179.589 252.465L232.672 221.844L285.755 252.465L232.672 283.086ZM123.556 283.086L70.4733 252.465L123.556 221.844L176.639 252.465L123.556 283.086ZM14.4406 283.086L-38.6425 252.465L14.4406 221.844L67.5236 252.465L14.4406 283.086ZM-203.803 283.086L-256.886 252.465L-203.803 221.844L-150.72 252.465L-203.803 283.086ZM-422.046 283.086L-475.13 252.465L-422.046 221.844L-368.963 252.465L-422.046 283.086ZM1651.95 345.601V284.359L1705.03 253.738V314.98L1651.95 345.601ZM1104.88 345.601L1051.8 314.98V253.738L1104.88 284.359V345.601ZM233.404 345.601V284.359L286.499 253.738V314.98L233.404 345.601ZM-313.662 345.601L-366.745 314.98V253.738L-313.662 284.359V345.601ZM1432.24 345.601L1379.14 314.98V253.738L1432.24 284.359V345.589V345.601ZM1214.01 345.601L1160.91 314.98V253.749L1214.01 284.37V345.601ZM941.937 377.495L888.854 346.874L942.397 315.982L942.68 315.817V253.738L995.775 284.359V346.438L941.949 377.483L941.937 377.495ZM886.648 345.601L833.553 314.98V253.749L886.648 284.37V345.601ZM451.647 345.601V284.37L504.742 253.749V314.98L451.647 345.601ZM396.358 377.495L342.531 346.449V284.37L395.626 253.749V315.828L395.98 316.04L449.453 346.874L396.37 377.495H396.358ZM124.288 345.601V284.37L177.383 253.749V314.98L124.288 345.601ZM-93.9438 345.601V284.37L-40.8489 253.749V314.991L-93.9438 345.613V345.601ZM1378.42 377.495L1324.6 346.449V284.359L1377.68 253.738V315.828L1431.51 346.874L1378.41 377.495H1378.42ZM1106.37 345.601V284.359L1159.45 253.738V314.968L1106.37 345.589V345.601ZM888.134 345.601V284.359L941.217 253.738V314.968L888.134 345.589V345.601ZM669.891 345.601V284.37L722.986 253.749V314.98L669.891 345.601ZM668.428 345.601L615.333 314.98V253.749L640.323 268.164L668.428 284.37V345.601ZM450.184 345.601L397.101 314.98V253.749L450.184 284.37V345.613V345.601ZM231.952 345.601L178.869 314.98V253.749L231.952 284.37V345.613V345.601ZM-40.1056 377.495L-93.2004 346.874L-39.3741 315.828V253.738L13.709 284.359V346.449L-40.1174 377.495H-40.1056ZM1868.74 345.601L1815.65 314.98V253.749L1868.74 284.359V345.601ZM1761.1 345.601V284.359L1814.18 253.749V314.991L1761.1 345.613V345.601ZM1759.62 345.601L1706.54 314.98V253.749L1759.62 284.37V345.601ZM1650.51 345.601L1597.42 314.98V253.749L1650.51 284.359V345.601ZM1542.85 345.601V284.359L1571.36 267.917L1595.95 253.738V314.98L1542.86 345.601H1542.85ZM1541.38 345.601L1488.3 314.98V253.749L1541.38 284.359V345.601ZM1433.73 345.601V284.359L1486.81 253.749V314.991L1433.73 345.613V345.601ZM1323.13 345.601L1270.04 314.98V253.749L1323.13 284.37V345.601ZM1215.48 345.601V284.37L1268.56 253.749V314.98L1215.48 345.601ZM779.007 345.601V284.359L832.09 253.749V314.991L779.007 345.613V345.601ZM777.532 345.601L724.449 314.98V253.749L732.012 258.11L777.544 284.37V345.601H777.532ZM560.763 345.601V284.37L606.295 258.11L613.858 253.749V314.98L566.415 342.336L560.763 345.589V345.601ZM559.288 345.601L506.205 314.98V253.749L559.288 284.359V345.601ZM122.813 345.601L69.73 314.98V253.749L122.813 284.37V345.601ZM15.1603 345.601V284.37L68.2551 253.749V314.98L15.1603 345.601ZM-95.4186 345.601L-148.502 314.98V253.749L-95.4186 284.359V345.601ZM-203.071 345.601V284.37L-149.988 253.749V314.98L-203.071 345.601ZM-204.546 345.601L-257.629 314.98V253.749L-204.546 284.359V345.601ZM-312.199 345.601V284.37L-259.116 253.749V314.98L-312.199 345.601ZM-421.315 345.601V284.37L-368.232 253.749V314.98L-421.315 345.601ZM-422.79 345.601L-475.873 314.991V253.749L-422.79 284.359V345.601ZM-530.431 345.601V284.37L-477.348 253.749V314.98L-530.525 345.601H-530.431ZM997.226 345.601V284.359L1050.31 253.749V314.98L997.226 345.601ZM341.045 345.601L287.962 314.98V253.749L341.045 284.359V345.601ZM1269.28 377.483L1216.19 346.862L1269.28 316.241L1322.38 346.862L1269.28 377.483ZM68.9749 377.483L15.88 346.862L68.9749 316.241L122.07 346.862L68.9749 377.483ZM1814.88 377.483L1761.79 346.862L1814.88 316.241L1867.97 346.862L1814.88 377.483ZM1705.76 377.483L1669.69 356.68L1652.68 346.874L1705.77 316.253L1758.85 346.874L1705.76 377.495V377.483ZM1596.64 377.483L1543.55 346.862L1596.64 316.241L1649.73 346.862L1596.64 377.483ZM1486.78 439.998L1433.7 409.377V347.286L1487.53 316.253L1541.35 347.286V409.377L1488.27 439.998V378.332C1488.27 377.931 1487.94 377.601 1487.54 377.601C1487.14 377.601 1486.81 377.931 1486.81 378.332V439.998H1486.78ZM1051.05 377.483L997.958 346.862L1051.05 316.241L1104.15 346.862L1051.05 377.483ZM832.809 377.483L779.714 346.862L832.809 316.241L874.4 340.226L885.892 346.85L862.908 360.11L832.809 377.471V377.483ZM723.693 377.483L676.982 350.551L670.599 346.874L723.682 316.253L768.388 342.041L776.765 346.874L732.165 372.592L723.67 377.495L723.693 377.483ZM614.578 377.483L575.571 354.995L561.483 346.874L570.096 341.912L614.578 316.264L667.661 346.885L614.578 377.507V377.483ZM505.462 377.483L452.379 346.862L505.462 316.241L558.557 346.862L505.462 377.483ZM287.218 377.483L234.123 346.862L287.218 316.241L340.313 346.862L287.218 377.483ZM-149.988 439.986L-203.083 409.365V347.286L-149.257 316.241L-95.4304 347.274V409.365L-148.514 439.986V378.32C-148.514 377.919 -148.844 377.577 -149.245 377.577C-149.646 377.577 -149.977 377.907 -149.977 378.32V439.986H-149.988ZM-258.373 377.483L-311.468 346.862L-258.373 316.241L-205.29 346.862L-258.373 377.483ZM-367.489 377.483L-420.583 346.862L-367.489 316.241L-314.394 346.862L-367.489 377.483ZM-476.604 377.483L-529.794 346.874L-476.699 316.253L-423.604 346.874L-476.699 377.495L-476.604 377.483ZM1815.63 439.998V378.756L1868.71 348.135V409.377L1815.63 439.998ZM1706.5 439.998V378.756L1759.6 348.135V409.377L1706.5 439.998ZM1597.39 439.998V378.756L1650.48 348.135V409.377L1597.39 439.998ZM1379.14 439.998V378.756L1432.24 348.135V409.377L1379.14 439.998ZM1270.03 439.998V378.756L1323.12 348.135V409.377L1270.03 439.998ZM1268.56 439.998L1215.48 409.377V348.135L1268.56 378.756V439.998ZM1051.8 439.998V378.756L1104.89 348.135V409.377L1051.8 439.998ZM504.73 439.998L451.635 409.377V348.135L504.73 378.756V439.998ZM286.499 439.998L233.404 409.377V348.135L286.499 378.756V439.998ZM69.73 439.998V378.768L122.813 348.147V409.389L69.73 440.01V439.998ZM68.2669 439.998L15.1721 409.377V348.135L68.2669 378.756V439.998ZM-40.8489 439.998L-93.9438 409.377V348.135L-40.8489 378.756V439.998ZM-259.092 439.998L-312.187 409.377V348.135L-259.092 378.756V439.998ZM-368.208 439.998L-421.303 409.377V348.135L-368.208 378.756V439.998ZM-477.336 439.998L-530.525 409.377V348.135L-477.442 378.756V439.986L-477.336 439.998ZM1814.16 439.998L1761.07 409.377V348.135L1814.16 378.756V439.998ZM1595.92 439.998L1542.84 409.377V348.135L1595.92 378.756V439.998ZM1377.69 439.998L1324.61 409.377V348.135L1377.69 378.756V439.998ZM1159.46 439.998L1106.38 409.377V348.135L1159.46 378.756V439.998ZM1050.34 439.998L997.262 409.377V348.135L1050.34 378.756V439.998ZM941.229 439.998L888.146 409.377V348.135L941.229 378.756V439.998ZM832.113 439.998L779.03 409.377V348.135L795.69 357.741L832.113 378.744V439.986V439.998ZM722.997 439.998L669.914 409.377V348.135L722.997 378.756V439.998ZM615.345 439.998V378.768L664.499 350.41L668.428 348.147V409.389L628.064 432.667L615.333 440.01L615.345 439.998ZM506.229 439.998V378.768L559.312 348.147V409.389L506.229 440.01V439.998ZM397.113 439.998V378.756L450.196 348.135V409.377L397.113 439.998ZM287.997 439.998V378.768L341.08 348.147V409.389L287.997 440.01V439.998ZM178.881 439.998V378.756L231.964 348.135V409.377L178.881 439.998ZM-39.3504 439.998V378.756L13.7326 348.135V409.377L-39.3504 439.998ZM-257.582 439.998V378.768L-204.499 348.147V409.389L-257.582 440.01V439.998ZM-475.826 439.998V378.768L-422.743 348.147V409.389L-475.826 440.01V439.998ZM1542.13 471.892L1489.04 441.271L1542.13 410.65L1595.22 441.271L1542.13 471.892ZM1105.66 471.892L1052.56 441.271L1105.66 410.65L1158.75 441.271L1105.66 471.892ZM232.708 471.892L205.794 456.369L179.613 441.271L232.708 410.65L285.802 441.271L232.719 471.892H232.708ZM14.4641 471.892L-38.6307 441.271L14.4641 410.65L67.559 441.271L14.476 471.892H14.4641ZM-203.779 471.892L-256.874 441.271L-203.779 410.65L-150.685 441.271L-203.779 471.892Z" fill="#ffffff"/>
</svg>
