<svg width="182" height="42" viewBox="0 0 182 42" fill="none" xmlns="http://www.w3.org/2000/svg">
<path d="M22.0231 1.01766V32.2184C22.0231 37.8265 18.4935 42 11.0092 42C3.52497 42 0 37.822 0 32.214V1.01318H5.6555V32.0346C5.6555 35.0157 7.11395 37.0465 11.0092 37.0465C14.9045 37.0465 16.363 35.0202 16.363 32.0346V1.01318H22.0231V1.01766Z" fill="white"/>
<path d="M39.6067 22.3694C36.4429 14.6141 34.6782 9.48565 34.6782 9.48565C34.6782 9.48565 35.4691 14.2599 35.4691 23.6829V41.3992H29.873V1.01303H35.9583L43.5615 19.9218C47.091 28.7485 48.3666 32.8055 48.3666 32.8055C48.3666 32.8055 47.6991 28.9279 47.6991 18.4872V1.00854H53.2357V41.3947H47.2144L39.6113 22.3649L39.6067 22.3694Z" fill="white"/>
<path d="M78.7836 41.3993H61.3828V1.01758H67.0429V36.5712H78.7836V41.3993Z" fill="white"/>
<path d="M98.9183 10.3823C98.9183 7.40121 97.3959 5.37048 93.5052 5.37048C89.6144 5.37048 88.1514 7.40121 88.1514 10.3823V32.0391C88.1514 34.9619 89.6739 36.9882 93.5052 36.9882C97.3365 36.9882 98.9183 35.0202 98.9183 32.0391V10.3823ZM104.514 32.2139C104.514 37.822 100.985 41.9955 93.5006 41.9955C86.0163 41.9955 82.5508 37.8175 82.5508 32.2139V10.203C82.5508 4.53666 86.0163 0.421387 93.5006 0.421387C100.985 0.421387 104.514 4.53666 104.514 10.203V32.2139Z" fill="white"/>
<path d="M133.415 28.6948V32.2139C133.415 37.822 129.885 41.9955 122.401 41.9955C114.917 41.9955 111.451 37.822 111.451 32.2139V10.203C111.451 4.53666 114.917 0.421387 122.401 0.421387C129.885 0.421387 133.415 4.53666 133.415 10.203V13.8431H127.819V10.3823C127.819 7.40121 126.296 5.37048 122.406 5.37048C118.515 5.37048 117.052 7.40121 117.052 10.3823V32.0346C117.052 35.0157 118.574 36.9882 122.406 36.9882C126.237 36.9882 127.819 34.9619 127.819 32.0346V28.6948H133.415Z" fill="white"/>
<path d="M163.223 1.01318L154.157 20.5809L163.772 41.3993H157.385L148.259 20.6975L157.079 1.01318H163.223ZM146.129 41.3993H140.469V1.01318H146.129V41.3993Z" fill="white"/>
<path d="M175.961 16.1922C173.269 16.1922 171.074 18.3395 171.074 20.9844C171.074 23.6293 173.264 25.7766 175.961 25.7766C178.659 25.7766 180.844 23.6293 180.844 20.9844C180.844 18.3395 178.654 16.1922 175.961 16.1922ZM175.961 26.9062C172.633 26.9062 169.922 24.2479 169.922 20.9844C169.922 17.7208 172.633 15.0625 175.961 15.0625C179.29 15.0625 182.001 17.7208 182.001 20.9844C182.001 24.2479 179.294 26.9062 175.961 26.9062Z" fill="white"/>
<path d="M175.961 1.12968C173.269 1.12968 171.074 3.27697 171.074 5.92187C171.074 8.56676 173.264 10.7096 175.961 10.7096C178.659 10.7096 180.844 8.56227 180.844 5.92187C180.844 3.28146 178.654 1.12968 175.961 1.12968ZM175.961 11.8437C172.633 11.8437 169.922 9.18539 169.922 5.92187C169.922 2.65834 172.633 0 175.961 0C179.29 0 182.001 2.65385 182.001 5.92187C182.001 9.18988 179.294 11.8437 175.961 11.8437Z" fill="white"/>
<path d="M175.961 31.2544C173.269 31.2544 171.074 33.4017 171.074 36.0466C171.074 38.6915 173.264 40.8388 175.961 40.8388C178.659 40.8388 180.844 38.6915 180.844 36.0466C180.844 33.4017 178.654 31.2544 175.961 31.2544ZM175.961 41.9685C172.633 41.9685 169.922 39.3102 169.922 36.0466C169.922 32.7831 172.633 30.1248 175.961 30.1248C179.29 30.1248 182.001 32.7831 182.001 36.0466C182.001 39.3102 179.294 41.9685 175.961 41.9685Z" fill="white"/>
</svg>
